<svg xmlns="http://www.w3.org/2000/svg" xmlns:xlink="http://www.w3.org/1999/xlink" version="1.1" width="40px" height="40px" viewBox="-0.5 -0.5 116 117" content=""><defs></defs><g><rect x="0.22" y="0" width="112" height="112" rx="15.68" ry="15.68" fill="none" stroke="none" pointer-events="all" transform="translate(2,3)" opacity="0.25"></rect><rect x="0.22" y="0" width="112" height="112" rx="15.68" ry="15.68" fill="none" stroke="none" pointer-events="all"></rect><path d="M 15.9 0 M 15.9 0 C 23.67 6.1 54.93 0.34 96.54 0 M 15.9 0 C 46.13 0.26 70.54 -1.8 96.54 0 M 96.54 0 C 113.59 1.58 112.53 6.8 112.22 15.68 M 96.54 0 C 104.11 -8.02 120.37 8.42 112.22 15.68 M 112.22 15.68 C 108.41 54.94 112.46 76.35 112.22 96.32 M 112.22 15.68 C 110.68 47.22 114.14 84.34 112.22 96.32 M 112.22 96.32 C 106.41 112.76 106.29 112.56 96.54 112 M 112.22 96.32 C 103.37 101.65 114.18 107.06 96.54 112 M 96.54 112 C 85.42 111.66 64.52 119.9 15.9 112 M 96.54 112 C 84.05 113.34 64.47 104.13 15.9 112 M 15.9 112 C -1.41 117.53 -3.18 108.32 0.22 96.32 M 15.9 112 C -4.13 106.26 -1.71 96.13 0.22 96.32 M 0.22 96.32 C 2.33 75.2 3.74 46.93 0.22 15.68 M 0.22 96.32 C -3.45 83.91 -1.14 62.21 0.22 15.68 M 0.22 15.68 C 5.04 5.12 -4.11 3.19 15.9 0 M 0.22 15.68 C -9.44 8.72 14.66 -3.92 15.9 0" fill="none" stroke="#000000" stroke-linejoin="round" stroke-linecap="round" stroke-miterlimit="10" pointer-events="all" transform="translate(2,3)" opacity="0.25"></path><path d="M 15.9 0 M 15.9 0 C 23.67 6.1 54.93 0.34 96.54 0 M 15.9 0 C 46.13 0.26 70.54 -1.8 96.54 0 M 96.54 0 C 113.59 1.58 112.53 6.8 112.22 15.68 M 96.54 0 C 104.11 -8.02 120.37 8.42 112.22 15.68 M 112.22 15.68 C 108.41 54.94 112.46 76.35 112.22 96.32 M 112.22 15.68 C 110.68 47.22 114.14 84.34 112.22 96.32 M 112.22 96.32 C 106.41 112.76 106.29 112.56 96.54 112 M 112.22 96.32 C 103.37 101.65 114.18 107.06 96.54 112 M 96.54 112 C 85.42 111.66 64.52 119.9 15.9 112 M 96.54 112 C 84.05 113.34 64.47 104.13 15.9 112 M 15.9 112 C -1.41 117.53 -3.18 108.32 0.22 96.32 M 15.9 112 C -4.13 106.26 -1.71 96.13 0.22 96.32 M 0.22 96.32 C 2.33 75.2 3.74 46.93 0.22 15.68 M 0.22 96.32 C -3.45 83.91 -1.14 62.21 0.22 15.68 M 0.22 15.68 C 5.04 5.12 -4.11 3.19 15.9 0 M 0.22 15.68 C -9.44 8.72 14.66 -3.92 15.9 0" fill="none" stroke="var(--color-primary)" stroke-linejoin="round" stroke-linecap="round" stroke-miterlimit="10" pointer-events="all"></path><path d="M 28.33 56 L 31.9 8.77" fill="none" stroke="none" pointer-events="stroke"></path><path d="M 28.33 56 M 28.33 56 C 25.39 53.47 26.33 38.16 31.9 8.77 M 28.33 56 C 29.25 41.18 30.18 30.53 31.9 8.77" fill="none" stroke="var(--color-primary)" stroke-linejoin="round" stroke-linecap="round" stroke-miterlimit="10" pointer-events="stroke"></path><rect x="28.33" y="28.11" width="55.78" height="55.78" rx="8.37" ry="8.37" fill="none" stroke="none" pointer-events="all" transform="translate(2,3)" opacity="0.25"></rect><rect x="28.33" y="28.11" width="55.78" height="55.78" rx="8.37" ry="8.37" fill="none" stroke="none" pointer-events="all"></rect><path d="M 36.7 28.11 M 36.7 28.11 C 41.14 33.38 55.77 28.64 75.74 28.11 M 36.7 28.11 C 47.62 26.78 56.3 26.42 75.74 28.11 M 75.74 28.11 C 81.38 29.39 88.49 25.36 84.11 36.48 M 75.74 28.11 C 74.64 32.08 88.63 37.01 84.11 36.48 M 84.11 36.48 C 78.46 43.68 78.98 51.29 84.11 75.52 M 84.11 36.48 C 85.37 51.73 82.89 69.02 84.11 75.52 M 84.11 75.52 C 88.49 82.46 76.08 80.12 75.74 83.89 M 84.11 75.52 C 79.43 85.19 81.92 90.48 75.74 83.89 M 75.74 83.89 C 71.47 82.62 58.77 77.89 36.7 83.89 M 75.74 83.89 C 65.17 83.25 57.32 82.23 36.7 83.89 M 36.7 83.89 C 27.9 78.44 30.26 82.18 28.33 75.52 M 36.7 83.89 C 27.07 78.44 24.96 85.68 28.33 75.52 M 28.33 75.52 C 28.57 65.19 27.29 48.51 28.33 36.48 M 28.33 75.52 C 29.88 60.72 32.15 52.3 28.33 36.48 M 28.33 36.48 C 32.92 30.43 28.51 24.92 36.7 28.11 M 28.33 36.48 C 34.62 31.49 28.01 22.62 36.7 28.11" fill="none" stroke="#000000" stroke-linejoin="round" stroke-linecap="round" stroke-miterlimit="10" pointer-events="all" transform="translate(2,3)" opacity="0.25"></path><path d="M 36.7 28.11 M 36.7 28.11 C 41.14 33.38 55.77 28.64 75.74 28.11 M 36.7 28.11 C 47.62 26.78 56.3 26.42 75.74 28.11 M 75.74 28.11 C 81.38 29.39 88.49 25.36 84.11 36.48 M 75.74 28.11 C 74.64 32.08 88.63 37.01 84.11 36.48 M 84.11 36.48 C 78.46 43.68 78.98 51.29 84.11 75.52 M 84.11 36.48 C 85.37 51.73 82.89 69.02 84.11 75.52 M 84.11 75.52 C 88.49 82.46 76.08 80.12 75.74 83.89 M 84.11 75.52 C 79.43 85.19 81.92 90.48 75.74 83.89 M 75.74 83.89 C 71.47 82.62 58.77 77.89 36.7 83.89 M 75.74 83.89 C 65.17 83.25 57.32 82.23 36.7 83.89 M 36.7 83.89 C 27.9 78.44 30.26 82.18 28.33 75.52 M 36.7 83.89 C 27.07 78.44 24.96 85.68 28.33 75.52 M 28.33 75.52 C 28.57 65.19 27.29 48.51 28.33 36.48 M 28.33 75.52 C 29.88 60.72 32.15 52.3 28.33 36.48 M 28.33 36.48 C 32.92 30.43 28.51 24.92 36.7 28.11 M 28.33 36.48 C 34.62 31.49 28.01 22.62 36.7 28.11" stroke="var(--color-primary)" stroke-linejoin="round" stroke-linecap="round" stroke-miterlimit="10" pointer-events="all" fill="none"></path></g></svg>